<?xml version="1.0" encoding="UTF-8" standalone="no"?>
<svg
   width="1024"
   height="1024"
   viewBox="0 0 1024 1024"
   fill="none"
   version="1.1"
   id="svg243"
   sodipodi:docname="bigsur.svg"
   inkscape:version="1.2.1 (9c6d41e410, 2022-07-14)"
   xmlns:inkscape="http://www.inkscape.org/namespaces/inkscape"
   xmlns:sodipodi="http://sodipodi.sourceforge.net/DTD/sodipodi-0.dtd"
   xmlns:xlink="http://www.w3.org/1999/xlink"
   xmlns="http://www.w3.org/2000/svg"
   xmlns:svg="http://www.w3.org/2000/svg">
  <sodipodi:namedview
     id="namedview245"
     pagecolor="#ffffff"
     bordercolor="#000000"
     borderopacity="0.25"
     inkscape:showpageshadow="2"
     inkscape:pageopacity="0.0"
     inkscape:pagecheckerboard="0"
     inkscape:deskcolor="#d1d1d1"
     showgrid="false"
     inkscape:zoom="0.4609375"
     inkscape:cx="545.62712"
     inkscape:cy="425.22034"
     inkscape:window-width="1920"
     inkscape:window-height="1067"
     inkscape:window-x="0"
     inkscape:window-y="32"
     inkscape:window-maximized="1"
     inkscape:current-layer="svg243" />
  <mask
     id="mask0_102_69"
     style="mask-type: alpha"
     maskUnits="userSpaceOnUse"
     x="100"
     y="98"
     width="824"
     height="824">
    <path
       fill-rule="evenodd"
       clip-rule="evenodd"
       d="M924 354.627C924 344.845 924.004 335.062 923.944 325.279C923.895 317.038 923.8 308.799 923.576 300.562C923.092 282.609 922.033 264.502 918.84 246.749C915.602 228.741 910.314 211.98 901.981 195.617C893.789 179.534 883.088 164.817 870.32 152.058C857.555 139.299 842.834 128.605 826.746 120.418C810.366 112.083 793.587 106.797 775.558 103.56C757.803 100.372 739.691 99.315 721.738 98.83C713.495 98.607 705.253 98.513 697.008 98.462C687.22 98.402 677.432 98.407 667.644 98.407L553.997 98H468.997L357.361 98.407C347.554 98.407 337.747 98.402 327.94 98.462C319.678 98.513 311.42 98.607 303.161 98.83C285.167 99.315 267.014 100.373 249.217 103.565C231.164 106.801 214.36 112.085 197.958 120.414C181.835 128.602 167.083 139.297 154.291 152.058C141.501 164.816 130.78 179.53 122.573 195.61C114.217 211.981 108.919 228.752 105.673 246.77C102.477 264.516 101.418 282.617 100.931 300.562C100.709 308.8 100.613 317.039 100.563 325.279C100.503 335.063 100 347.216 100 356.999L100.003 467.089L100 552.998L100.508 665.427C100.508 675.223 100.504 685.019 100.563 694.815C100.613 703.067 100.709 711.317 100.932 719.566C101.418 737.542 102.479 755.675 105.678 773.452C108.923 791.484 114.22 808.269 122.569 824.653C130.777 840.759 141.5 855.495 154.291 868.272C167.082 881.049 181.83 891.757 197.95 899.956C214.362 908.302 231.174 913.595 249.238 916.836C267.027 920.029 285.174 921.088 303.161 921.573C311.42 921.796 319.679 921.891 327.941 921.941C337.748 922.001 347.554 921.997 357.361 921.997L470.006 922H555.217L667.644 921.996C677.432 921.996 687.22 922.001 697.008 921.941C705.253 921.891 713.495 921.796 721.738 921.573C739.698 921.087 757.816 920.027 775.579 916.832C793.597 913.591 810.368 908.3 826.739 899.959C842.831 891.761 857.554 881.051 870.32 868.272C883.086 855.497 893.786 840.763 901.978 824.66C910.316 808.268 915.604 791.475 918.844 773.431C922.034 755.661 923.092 737.535 923.577 719.566C923.8 711.316 923.895 703.066 923.944 694.815C924.005 685.019 924 675.223 924 665.427C924 665.427 923.994 554.983 923.994 552.998V466.999C923.994 465.533 924 354.627 924 354.627Z"
       fill="white"
       id="path173" />
  </mask>
  <defs
     id="defs241">
    <filter
       id="filter0_d_102_69"
       x="90"
       y="98"
       width="844"
       height="844"
       filterUnits="userSpaceOnUse"
       color-interpolation-filters="sRGB">
      <feFlood
         flood-opacity="0"
         result="BackgroundImageFix"
         id="feFlood198" />
      <feColorMatrix
         in="SourceAlpha"
         type="matrix"
         values="0 0 0 0 0 0 0 0 0 0 0 0 0 0 0 0 0 0 127 0"
         result="hardAlpha"
         id="feColorMatrix200" />
      <feOffset
         dy="10"
         id="feOffset202" />
      <feGaussianBlur
         stdDeviation="5"
         id="feGaussianBlur204" />
      <feColorMatrix
         type="matrix"
         values="0 0 0 0 0 0 0 0 0 0 0 0 0 0 0 0 0 0 0.3 0"
         id="feColorMatrix206" />
      <feBlend
         mode="normal"
         in2="BackgroundImageFix"
         result="effect1_dropShadow_102_69"
         id="feBlend208" />
      <feBlend
         mode="normal"
         in="SourceGraphic"
         in2="effect1_dropShadow_102_69"
         result="shape"
         id="feBlend210" />
    </filter>
    <filter
       id="filter1_b_102_69"
       x="89.1269"
       y="87.1269"
       width="845.746"
       height="845.746"
       filterUnits="userSpaceOnUse"
       color-interpolation-filters="sRGB">
      <feFlood
         flood-opacity="0"
         result="BackgroundImageFix"
         id="feFlood213" />
      <feGaussianBlur
         in="BackgroundImage"
         stdDeviation="5.43656"
         id="feGaussianBlur215" />
      <feComposite
         in2="SourceAlpha"
         operator="in"
         result="effect1_backgroundBlur_102_69"
         id="feComposite217" />
      <feBlend
         mode="normal"
         in="SourceGraphic"
         in2="effect1_backgroundBlur_102_69"
         result="shape"
         id="feBlend219" />
    </filter>
    <linearGradient
       id="paint0_linear_102_69"
       x1="-181.14"
       y1="98"
       x2="-181.14"
       y2="1484.28"
       gradientUnits="userSpaceOnUse">
      <stop
         stop-color="white"
         id="stop222" />
      <stop
         offset="0.489516"
         stop-color="#EFEFEF"
         id="stop224" />
      <stop
         offset="1"
         stop-color="#C0C0C0"
         id="stop226" />
    </linearGradient>
    <linearGradient
       id="paint1_linear_102_69"
       x1="928.377"
       y1="992.826"
       x2="928.377"
       y2="134.072"
       gradientUnits="userSpaceOnUse">
      <stop
         stop-color="#F6F3F3"
         id="stop229" />
      <stop
         offset="1"
         stop-color="white"
         id="stop231" />
    </linearGradient>
    <linearGradient
       id="paint2_linear_102_69"
       x1="394.815"
       y1="372.239"
       x2="629.182"
       y2="542.528"
       gradientUnits="userSpaceOnUse">
      <stop
         stop-color="#88B858"
         id="stop234" />
      <stop
         offset="0.5"
         stop-color="#72B147"
         id="stop236" />
      <stop
         offset="1"
         stop-color="#5A9A30"
         id="stop238" />
    </linearGradient>
    <filter
       id="filter0_d_102_69-3"
       x="90"
       y="98"
       width="844"
       height="844"
       filterUnits="userSpaceOnUse"
       color-interpolation-filters="sRGB">
      <feFlood
         flood-opacity="0"
         result="BackgroundImageFix"
         id="feFlood169" />
      <feColorMatrix
         in="SourceAlpha"
         type="matrix"
         values="0 0 0 0 0 0 0 0 0 0 0 0 0 0 0 0 0 0 127 0"
         result="hardAlpha"
         id="feColorMatrix171" />
      <feOffset
         dy="10"
         id="feOffset173" />
      <feGaussianBlur
         stdDeviation="5"
         id="feGaussianBlur175" />
      <feColorMatrix
         type="matrix"
         values="0 0 0 0 0 0 0 0 0 0 0 0 0 0 0 0 0 0 0.3 0"
         id="feColorMatrix177" />
      <feBlend
         mode="normal"
         in2="BackgroundImageFix"
         result="effect1_dropShadow_102_69"
         id="feBlend179" />
      <feBlend
         mode="normal"
         in="SourceGraphic"
         in2="effect1_dropShadow_102_69"
         result="shape"
         id="feBlend181" />
    </filter>
    <mask
       id="mask0_102_69-6"
       maskUnits="userSpaceOnUse"
       x="100"
       y="98"
       width="824"
       height="824">
      <path
         fill-rule="evenodd"
         clip-rule="evenodd"
         d="m 924,354.627 c 0,-9.782 0.004,-19.565 -0.056,-29.348 -0.049,-8.241 -0.144,-16.48 -0.368,-24.717 -0.484,-17.953 -1.543,-36.06 -4.736,-53.813 -3.238,-18.008 -8.526,-34.769 -16.859,-51.132 -8.192,-16.083 -18.893,-30.8 -31.661,-43.559 -12.765,-12.759 -27.486,-23.453 -43.574,-31.64 -16.38,-8.335 -33.159,-13.621 -51.188,-16.858 -17.755,-3.188 -35.867,-4.245 -53.82,-4.73 -8.243,-0.223 -16.485,-0.317 -24.73,-0.368 -9.788,-0.06 -19.576,-0.055 -29.364,-0.055 L 553.997,98 h -85 l -111.636,0.407 c -9.807,0 -19.614,-0.005 -29.421,0.055 -8.262,0.051 -16.52,0.145 -24.779,0.368 -17.994,0.485 -36.147,1.543 -53.944,4.735 -18.053,3.236 -34.857,8.52 -51.259,16.849 -16.123,8.188 -30.875,18.883 -43.667,31.644 -12.79,12.758 -23.511,27.472 -31.718,43.552 -8.356,16.371 -13.654,33.142 -16.9,51.16 -3.196,17.746 -4.255,35.847 -4.742,53.792 -0.222,8.238 -0.318,16.477 -0.368,24.717 -0.06,9.784 -0.563,21.937 -0.563,31.72 l 0.003,110.09 -0.003,85.909 0.508,112.429 c 0,9.796 -0.004,19.592 0.055,29.388 0.05,8.252 0.146,16.502 0.369,24.751 0.486,17.976 1.547,36.109 4.746,53.886 3.245,18.032 8.542,34.817 16.891,51.201 8.208,16.106 18.931,30.842 31.722,43.619 12.791,12.777 27.539,23.485 43.659,31.684 16.412,8.346 33.224,13.639 51.288,16.88 17.789,3.193 35.936,4.252 53.923,4.737 8.259,0.223 16.518,0.318 24.78,0.368 9.807,0.06 19.613,0.056 29.42,0.056 L 470.006,922 h 85.211 l 112.427,-0.004 c 9.788,0 19.576,0.005 29.364,-0.055 8.245,-0.05 16.487,-0.145 24.73,-0.368 17.96,-0.486 36.078,-1.546 53.841,-4.741 18.018,-3.241 34.789,-8.532 51.16,-16.873 16.092,-8.198 30.815,-18.908 43.581,-31.687 12.766,-12.775 23.466,-27.509 31.658,-43.612 8.338,-16.392 13.626,-33.185 16.866,-51.229 3.19,-17.77 4.248,-35.896 4.733,-53.865 0.223,-8.25 0.318,-16.5 0.367,-24.751 0.061,-9.796 0.056,-19.592 0.056,-29.388 0,0 -0.006,-110.444 -0.006,-112.429 v -85.999 c 0,-1.466 0.006,-112.372 0.006,-112.372 z"
         fill="#ffffff"
         id="path144" />
    </mask>
    <filter
       id="filter1_b_102_69-7"
       x="89.1269"
       y="87.1269"
       width="845.74597"
       height="845.74597"
       filterUnits="userSpaceOnUse"
       color-interpolation-filters="sRGB">
      <feFlood
         flood-opacity="0"
         result="BackgroundImageFix"
         id="feFlood184" />
      <feGaussianBlur
         in="BackgroundImage"
         stdDeviation="5.43656"
         id="feGaussianBlur186" />
      <feComposite
         in2="SourceAlpha"
         operator="in"
         result="effect1_backgroundBlur_102_69"
         id="feComposite188" />
      <feBlend
         mode="normal"
         in="SourceGraphic"
         in2="effect1_backgroundBlur_102_69"
         result="shape"
         id="feBlend190" />
    </filter>
    <linearGradient
       id="linearGradient84726"
       x1="4.4979"
       x2="12.435"
       y1="3.8011"
       y2="9.5681"
       gradientUnits="userSpaceOnUse"
       gradientTransform="matrix(36.843628,0,0,36.843628,200.00146,203.2644)">
      <stop
         stop-color="#88b858"
         offset="0"
         id="stop2" />
      <stop
         stop-color="#72b147"
         offset=".5"
         id="stop4" />
      <stop
         stop-color="#5a9a30"
         offset="1"
         id="stop6" />
    </linearGradient>
    <linearGradient
       id="linearGradient84726-3"
       x1="4.4979"
       x2="12.435"
       y1="3.8011"
       y2="9.5681"
       gradientUnits="userSpaceOnUse"
       gradientTransform="matrix(30.517482,0,0,30.517482,264.11002,261.48199)">
      <stop
         stop-color="#88b858"
         offset="0"
         id="stop2-5" />
      <stop
         stop-color="#72b147"
         offset=".5"
         id="stop4-6" />
      <stop
         stop-color="#5a9a30"
         offset="1"
         id="stop6-2" />
    </linearGradient>
    <filter
       id="filter0_d_102_69-3-9"
       x="90"
       y="98"
       width="844"
       height="844"
       filterUnits="userSpaceOnUse"
       color-interpolation-filters="sRGB">
      <feFlood
         flood-opacity="0"
         result="BackgroundImageFix"
         id="feFlood169-1" />
      <feColorMatrix
         in="SourceAlpha"
         type="matrix"
         values="0 0 0 0 0 0 0 0 0 0 0 0 0 0 0 0 0 0 127 0"
         result="hardAlpha"
         id="feColorMatrix171-2" />
      <feOffset
         dy="10"
         id="feOffset173-7" />
      <feGaussianBlur
         stdDeviation="5"
         id="feGaussianBlur175-0" />
      <feColorMatrix
         type="matrix"
         values="0 0 0 0 0 0 0 0 0 0 0 0 0 0 0 0 0 0 0.3 0"
         id="feColorMatrix177-9" />
      <feBlend
         mode="normal"
         in2="BackgroundImageFix"
         result="effect1_dropShadow_102_69"
         id="feBlend179-3" />
      <feBlend
         mode="normal"
         in="SourceGraphic"
         in2="effect1_dropShadow_102_69"
         result="shape"
         id="feBlend181-6" />
    </filter>
    <linearGradient
       inkscape:collect="always"
       xlink:href="#paint0_linear_102_69"
       id="linearGradient4947"
       gradientUnits="userSpaceOnUse"
       x1="-181.14"
       y1="98"
       x2="-181.14"
       y2="1484.28" />
    <mask
       id="mask0_102_69-6-0"
       maskUnits="userSpaceOnUse"
       x="100"
       y="98"
       width="824"
       height="824">
      <path
         fill-rule="evenodd"
         clip-rule="evenodd"
         d="m 924,354.627 c 0,-9.782 0.004,-19.565 -0.056,-29.348 -0.049,-8.241 -0.144,-16.48 -0.368,-24.717 -0.484,-17.953 -1.543,-36.06 -4.736,-53.813 -3.238,-18.008 -8.526,-34.769 -16.859,-51.132 -8.192,-16.083 -18.893,-30.8 -31.661,-43.559 -12.765,-12.759 -27.486,-23.453 -43.574,-31.64 -16.38,-8.335 -33.159,-13.621 -51.188,-16.858 -17.755,-3.188 -35.867,-4.245 -53.82,-4.73 -8.243,-0.223 -16.485,-0.317 -24.73,-0.368 -9.788,-0.06 -19.576,-0.055 -29.364,-0.055 L 553.997,98 h -85 l -111.636,0.407 c -9.807,0 -19.614,-0.005 -29.421,0.055 -8.262,0.051 -16.52,0.145 -24.779,0.368 -17.994,0.485 -36.147,1.543 -53.944,4.735 -18.053,3.236 -34.857,8.52 -51.259,16.849 -16.123,8.188 -30.875,18.883 -43.667,31.644 -12.79,12.758 -23.511,27.472 -31.718,43.552 -8.356,16.371 -13.654,33.142 -16.9,51.16 -3.196,17.746 -4.255,35.847 -4.742,53.792 -0.222,8.238 -0.318,16.477 -0.368,24.717 -0.06,9.784 -0.563,21.937 -0.563,31.72 l 0.003,110.09 -0.003,85.909 0.508,112.429 c 0,9.796 -0.004,19.592 0.055,29.388 0.05,8.252 0.146,16.502 0.369,24.751 0.486,17.976 1.547,36.109 4.746,53.886 3.245,18.032 8.542,34.817 16.891,51.201 8.208,16.106 18.931,30.842 31.722,43.619 12.791,12.777 27.539,23.485 43.659,31.684 16.412,8.346 33.224,13.639 51.288,16.88 17.789,3.193 35.936,4.252 53.923,4.737 8.259,0.223 16.518,0.318 24.78,0.368 9.807,0.06 19.613,0.056 29.42,0.056 L 470.006,922 h 85.211 l 112.427,-0.004 c 9.788,0 19.576,0.005 29.364,-0.055 8.245,-0.05 16.487,-0.145 24.73,-0.368 17.96,-0.486 36.078,-1.546 53.841,-4.741 18.018,-3.241 34.789,-8.532 51.16,-16.873 16.092,-8.198 30.815,-18.908 43.581,-31.687 12.766,-12.775 23.466,-27.509 31.658,-43.612 8.338,-16.392 13.626,-33.185 16.866,-51.229 3.19,-17.77 4.248,-35.896 4.733,-53.865 0.223,-8.25 0.318,-16.5 0.367,-24.751 0.061,-9.796 0.056,-19.592 0.056,-29.388 0,0 -0.006,-110.444 -0.006,-112.429 v -85.999 c 0,-1.466 0.006,-112.372 0.006,-112.372 z"
         fill="#ffffff"
         id="path144-6" />
    </mask>
    <linearGradient
       inkscape:collect="always"
       xlink:href="#paint1_linear_102_69"
       id="linearGradient4949"
       gradientUnits="userSpaceOnUse"
       x1="928.37701"
       y1="992.82599"
       x2="928.37701"
       y2="134.07201" />
    <filter
       id="filter1_b_102_69-7-2"
       x="89.1269"
       y="87.1269"
       width="845.74597"
       height="845.74597"
       filterUnits="userSpaceOnUse"
       color-interpolation-filters="sRGB">
      <feFlood
         flood-opacity="0"
         result="BackgroundImageFix"
         id="feFlood184-6" />
      <feGaussianBlur
         in="BackgroundImage"
         stdDeviation="5.43656"
         id="feGaussianBlur186-1" />
      <feComposite
         in2="SourceAlpha"
         operator="in"
         result="effect1_backgroundBlur_102_69"
         id="feComposite188-8" />
      <feBlend
         mode="normal"
         in="SourceGraphic"
         in2="effect1_backgroundBlur_102_69"
         result="shape"
         id="feBlend190-7" />
    </filter>
  </defs>
  <g
     id="g2311"
     transform="matrix(3.7856146,0,0,3.7856146,477.12649,464.55599)">
    <g
       filter="url(#filter0_d_102_69)"
       id="g142"
       transform="matrix(0.26457812,0,0,0.26457812,-123.41,-122.90775)"
       style="filter:url(#filter0_d_102_69-3-9)">
      <path
         fill-rule="evenodd"
         clip-rule="evenodd"
         d="m 924,354.627 c 0,-9.782 0.004,-19.565 -0.056,-29.348 -0.049,-8.241 -0.144,-16.48 -0.368,-24.717 -0.484,-17.953 -1.543,-36.06 -4.736,-53.813 -3.238,-18.008 -8.526,-34.769 -16.859,-51.132 -8.192,-16.083 -18.893,-30.8 -31.661,-43.559 -12.765,-12.759 -27.486,-23.453 -43.574,-31.64 -16.38,-8.335 -33.159,-13.621 -51.188,-16.858 -17.755,-3.188 -35.867,-4.245 -53.82,-4.73 -8.243,-0.223 -16.485,-0.317 -24.73,-0.368 -9.788,-0.06 -19.576,-0.055 -29.364,-0.055 L 553.997,98 h -85 l -111.636,0.407 c -9.807,0 -19.614,-0.005 -29.421,0.055 -8.262,0.051 -16.52,0.145 -24.779,0.368 -17.994,0.485 -36.147,1.543 -53.944,4.735 -18.053,3.236 -34.857,8.52 -51.259,16.849 -16.123,8.188 -30.875,18.883 -43.667,31.644 -12.79,12.758 -23.511,27.472 -31.718,43.552 -8.356,16.371 -13.654,33.142 -16.9,51.16 -3.196,17.746 -4.255,35.847 -4.742,53.792 -0.222,8.238 -0.318,16.477 -0.368,24.717 -0.06,9.784 -0.563,21.937 -0.563,31.72 l 0.003,110.09 -0.003,85.909 0.508,112.429 c 0,9.796 -0.004,19.592 0.055,29.388 0.05,8.252 0.146,16.502 0.369,24.751 0.486,17.976 1.547,36.109 4.746,53.886 3.245,18.032 8.542,34.817 16.891,51.201 8.208,16.106 18.931,30.842 31.722,43.619 12.791,12.777 27.539,23.485 43.659,31.684 16.412,8.346 33.224,13.639 51.288,16.88 17.789,3.193 35.936,4.252 53.923,4.737 8.259,0.223 16.518,0.318 24.78,0.368 9.807,0.06 19.613,0.056 29.42,0.056 L 470.006,922 h 85.211 l 112.427,-0.004 c 9.788,0 19.576,0.005 29.364,-0.055 8.245,-0.05 16.487,-0.145 24.73,-0.368 17.96,-0.486 36.078,-1.546 53.841,-4.741 18.018,-3.241 34.789,-8.532 51.16,-16.873 16.092,-8.198 30.815,-18.908 43.581,-31.687 12.766,-12.775 23.466,-27.509 31.658,-43.612 8.338,-16.392 13.626,-33.185 16.866,-51.229 3.19,-17.77 4.248,-35.896 4.733,-53.865 0.223,-8.25 0.318,-16.5 0.367,-24.751 0.061,-9.796 0.056,-19.592 0.056,-29.388 0,0 -0.006,-110.444 -0.006,-112.429 v -85.999 c 0,-1.466 0.006,-112.372 0.006,-112.372 z"
         fill="url(#paint0_linear_102_69)"
         id="path140"
         style="fill:url(#linearGradient4947)" />
    </g>
    <g
       mask="url(#mask0_102_69-6-0)"
       id="g153"
       transform="matrix(0.26457812,0,0,0.26457812,-123.41,-122.90775)">
      <rect
         x="42"
         y="36"
         width="914"
         height="914"
         fill="url(#paint1_linear_102_69)"
         id="rect147"
         style="fill:url(#linearGradient4949)" />
      <g
         filter="url(#filter1_b_102_69)"
         id="g151"
         style="filter:url(#filter1_b_102_69-7-2)">
        <rect
           x="100"
           y="98"
           width="824"
           height="824"
           rx="126"
           fill="#000000"
           fill-opacity="0.01"
           id="rect149" />
      </g>
    </g>
  </g>
  <path
     d="M 522.49235,641.48586 764.72489,465.49403 672.19897,750.25646 Z"
     fill="#5b422d"
     id="path15"
     style="stroke-width:30.5175" />
  <path
     d="M 522.49235,641.48586 372.78588,750.25646 280.25996,465.49403 Z"
     fill="#b7835a"
     id="path13"
     style="stroke-width:30.5175" />
  <path
     d="m 372.78282,750.24986 c 0,0 0,-108.7706 149.70648,-108.7706 149.7463,0 149.70662,108.7706 149.70662,108.7706 z"
     fill="#765338"
     id="path11"
     style="stroke-width:30.5175" />
  <path
     d="m 533.60386,649.54206 -11.11363,8.0747 -11.11349,-8.0747 c 0,-8.0735 11.11349,-8.0735 11.11349,-8.0735 0,0 11.11363,0 11.11363,8.0735 z"
     fill="#72b147"
     id="path17"
     style="stroke-width:30.5175" />
  <path
     d="M 280.25902,465.47943 522.49157,641.46996 764.72397,465.47943 522.49157,289.4876 Z"
     fill="url(#linearGradient84726)"
     id="path23"
     style="fill:url(#linearGradient84726-3);stroke-width:30.5175" />
  <path
     d="m 522.49235,641.48586 c 0,0 0,-175.99183 242.23254,-175.99183 l -6.86845,21.13956 -28.03125,36.51427 -28.03124,4.2165 -28.03125,36.5142 -28.03123,4.2179 -28.03124,36.5142 -28.03123,4.2179 -28.03126,36.5129 -28.03123,4.2178 z"
     fill="#5a9a30"
     id="path19"
     style="stroke-width:30.5175" />
  <path
     d="m 511.37793,649.54206 -28.03124,-4.2165 -28.03124,-36.5143 -28.03123,-4.2178 -28.03111,-36.5143 -28.03124,-4.2165 -28.03125,-36.5142 -28.03124,-4.2179 -28.03123,-36.51424 -6.8686,-21.13822 c 242.23254,0 242.23254,175.99046 242.23254,175.99046 z"
     fill="#88b858"
     id="path21"
     style="stroke-width:30.5175" />
  <path
     d="m 287.12749,486.61898 -6.86847,-21.13955 242.23255,175.99183 242.2324,-175.99183 -6.86859,21.13955 -235.36303,171.00178 z"
     fill-opacity="0"
     id="path27"
     style="stroke-width:30.5175" />
</svg>
