<?xml version="1.0" encoding="UTF-8" standalone="no"?>
<!-- Created with Inkscape (http://www.inkscape.org/) -->

<svg
   width="64"
   height="64"
   version="1.1"
   viewBox="0 0 16.933 16.933"
   id="svg29"
   sodipodi:docname="launcher.svg"
   inkscape:version="1.2.1 (9c6d41e410, 2022-07-14)"
   xmlns:inkscape="http://www.inkscape.org/namespaces/inkscape"
   xmlns:sodipodi="http://sodipodi.sourceforge.net/DTD/sodipodi-0.dtd"
   xmlns="http://www.w3.org/2000/svg"
   xmlns:svg="http://www.w3.org/2000/svg">
  <sodipodi:namedview
     id="namedview31"
     pagecolor="#ffffff"
     bordercolor="#000000"
     borderopacity="0.25"
     inkscape:showpageshadow="2"
     inkscape:pageopacity="0.0"
     inkscape:pagecheckerboard="0"
     inkscape:deskcolor="#d1d1d1"
     showgrid="false"
     inkscape:zoom="7.375"
     inkscape:cx="13.220339"
     inkscape:cy="38.237288"
     inkscape:window-width="1920"
     inkscape:window-height="1067"
     inkscape:window-x="0"
     inkscape:window-y="32"
     inkscape:window-maximized="1"
     inkscape:current-layer="svg29" />
  <defs
     id="defs9">
    <linearGradient
       id="linearGradient84726"
       x1="4.4979"
       x2="12.435"
       y1="3.8011"
       y2="9.5681"
       gradientUnits="userSpaceOnUse">
      <stop
         stop-color="#88b858"
         offset="0"
         id="stop2" />
      <stop
         stop-color="#72b147"
         offset=".5"
         id="stop4" />
      <stop
         stop-color="#5a9a30"
         offset="1"
         id="stop6" />
    </linearGradient>
  </defs>
  <path
     d="m 8.4667,12.452 7.9375,-5.7669 -3.0319,9.3311 z"
     fill="#5b422d"
     id="path15" />
  <path
     d="M 8.4667,12.452 3.5611,16.0162 0.5292,6.6851 Z"
     fill="#b7835a"
     id="path13" />
  <path
     d="m 3.561,16.016 c 0,0 0,-3.5642 4.9056,-3.5642 4.9069,0 4.9056,3.5642 4.9056,3.5642 z"
     fill="#765338"
     id="path11" />
  <path
     d="M 8.8308,12.716 8.46663,12.98058 8.10246,12.716 c 0,-0.26458 0.36417,-0.26458 0.36417,-0.26458 0,0 0.36417,0 0.36417,0.26458 z"
     fill="#72b147"
     id="path17" />
  <path
     d="m 0.52917,6.6846 7.9375,5.7669 7.9375,-5.7669 -7.9375,-5.7669 z"
     fill="url(#linearGradient84726)"
     id="path23"
     style="fill:url(#linearGradient84726)" />
  <path
     d="m 8.4667,12.452 c 0,0 -2e-7,-5.7669 7.9375,-5.7669 l -0.22507,0.69269 -0.91853,1.1965 -0.91853,0.13819 -0.91853,1.1965 -0.91853,0.13819 -0.91853,1.1965 -0.91853,0.13819 -0.91853,1.1965 -0.91853,0.13819 z"
     fill="#5a9a30"
     id="path19" />
  <path
     d="M 8.1025,12.716 7.18397,12.57781 6.26544,11.38131 5.34691,11.24312 4.42838,10.04662 3.50985,9.90843 2.59132,8.71193 1.67279,8.57374 0.75426,7.37724 0.52919,6.68455 c 7.9375,1e-7 7.9375,5.7669 7.9375,5.7669 z"
     fill="#88b858"
     id="path21" />
  <path
     d="m0.75424 7.3773-0.22507-0.69269 7.9375 5.7669 7.9375-5.7669-0.22507 0.69269-7.7124 5.6034z"
     fill-opacity="0"
     id="path27" />
</svg>
